<?xml version="1.0" standalone="no"?>
<!DOCTYPE svg PUBLIC "-//W3C//DTD SVG 20010904//EN"
 "http://www.w3.org/TR/2001/REC-SVG-20010904/DTD/svg10.dtd">
<svg version="1.0" xmlns="http://www.w3.org/2000/svg"
 width="187.000000pt" height="58.000000pt" viewBox="0 0 187.000000 58.000000"
 preserveAspectRatio="xMidYMid meet">

<g transform="translate(0.000000,58.000000) scale(0.100000,-0.100000)"
fill="#faf9f8" stroke="none">
<path d="M1145 468 c-3 -8 -4 -72 -3 -144 l3 -129 43 -3 42 -3 0 65 c0 37 4
66 10 66 6 0 10 -28 10 -65 l0 -65 40 0 40 0 0 88 c0 100 -12 122 -68 122 -28
0 -31 3 -34 38 -3 35 -5 37 -41 40 -24 2 -39 -1 -42 -10z"/>
<path d="M1619 473 c0 -4 0 -55 1 -113 1 -118 10 -141 65 -167 71 -34 155 23
155 105 0 42 -53 100 -95 104 -29 3 -30 1 -33 -39 -3 -37 0 -43 16 -43 11 0
23 -8 26 -17 8 -21 -17 -48 -38 -40 -12 5 -16 27 -18 109 l-3 103 -37 3 c-21
2 -38 0 -39 -5z"/>
<path d="M114 398 c-56 -15 -88 -74 -72 -135 10 -40 42 -63 85 -63 31 0 33 2
33 34 0 26 -5 35 -21 39 -28 7 -23 52 6 52 18 0 20 -8 23 -68 3 -76 -7 -97
-44 -97 -21 0 -24 -5 -24 -35 0 -34 1 -35 41 -35 33 0 47 6 75 34 33 33 34 36
34 120 0 47 -5 96 -11 109 -18 40 -72 59 -125 45z"/>
<path d="M385 403 c-109 -20 -130 -167 -30 -209 55 -23 65 -19 65 24 0 29 -5
39 -22 47 -32 14 -31 50 2 50 24 0 25 -3 28 -62 l3 -63 39 0 40 0 0 74 c0 63
-3 79 -22 101 -24 27 -70 44 -103 38z"/>
<path d="M623 402 c-44 -7 -63 -47 -63 -133 l0 -79 40 0 40 0 0 65 c0 51 3 65
15 65 12 0 15 -14 15 -65 l0 -65 40 0 40 0 0 65 c0 37 4 65 10 65 6 0 10 -29
10 -66 l0 -65 43 3 42 3 3 52 c5 81 -13 132 -51 148 -27 11 -37 11 -64 0 -27
-11 -39 -12 -65 -1 -18 7 -43 11 -55 8z"/>
<path d="M964 396 c-94 -41 -98 -165 -7 -203 37 -15 97 -11 108 7 11 18 -29
58 -54 56 -32 -1 -52 44 -31 68 14 18 50 22 50 6 0 -5 -9 -10 -20 -10 -13 0
-20 -7 -20 -20 0 -18 7 -20 59 -20 33 0 62 3 64 8 9 15 -19 76 -43 93 -36 26
-70 31 -106 15z"/>
<path d="M1387 393 c-13 -12 -7 -123 7 -158 26 -63 97 -75 147 -26 27 28 29
34 29 111 l0 81 -37 -3 -38 -3 -3 -68 c-4 -91 -26 -87 -30 6 l-3 67 -33 0
c-18 0 -36 -3 -39 -7z"/>
</g>
</svg>
