<svg width="40" height="40" viewBox="0 0 40 40" fill="none" xmlns="http://www.w3.org/2000/svg">
<g id="shopping-bag-02">
<path id="Icon" d="M26.6672 14.9999V9.99992C26.6672 6.31802 23.6824 3.33325 20.0005 3.33325C16.3186 3.33325 13.3339 6.31802 13.3339 9.99992V14.9999M5.98721 17.2532L4.98721 27.9199C4.70288 30.9527 4.56071 32.4691 5.06395 33.6404C5.50603 34.6693 6.28073 35.52 7.2639 36.0562C8.38308 36.6666 9.90614 36.6666 12.9523 36.6666H27.0488C30.0949 36.6666 31.618 36.6666 32.7372 36.0562C33.7203 35.52 34.495 34.6693 34.9371 33.6404C35.4404 32.4691 35.2982 30.9527 35.0139 27.9199L34.0139 17.2532C33.7738 14.6922 33.6537 13.4116 33.0778 12.4435C32.5705 11.5909 31.8211 10.9084 30.9248 10.483C29.9072 9.99992 28.6211 9.99992 26.0488 9.99992L13.9523 9.99992C11.38 9.99992 10.0939 9.99992 9.07623 10.483C8.17998 10.9084 7.43055 11.5909 6.9233 12.4435C6.34735 13.4116 6.2273 14.6922 5.98721 17.2532Z" stroke="#FAF9F8" stroke-width="2" stroke-linecap="round" stroke-linejoin="round"/>
</g>
</svg>
